inDegrees=no
num_controls=7
num_derivatives=13
num_iterations=47
num_multipliers=7
num_parameters=0
num_slacks=7
num_states=26
objective=0.472036
objective_accelerations=0.056807
objective_balance=0.000639
objective_effort=0.015564
objective_height=0.390082
objective_ligament=0.008943
solver_duration=754.569308
status=Solve_Succeeded
success=true
DataType=double
version=3
OpenSimVersion=4.5
endheader
time	/jointset/ground_pelvis/pelvis_tilt/value	/jointset/ground_pelvis/pelvis_tx/value	/jointset/ground_pelvis/pelvis_ty/value	/jointset/hip_l/hip_flexion_l/value	/jointset/hip_l/hip_adduction_l/value	/jointset/hip_l/hip_rotation_l/value	/jointset/back/lumbar_extension/value	/jointset/patellofemoral_l/patellar_flexion_l/value	/jointset/knee_l/knee_flexion_l/value	/jointset/knee_l/knee_adduction_l/value	/jointset/knee_l/knee_rotation_l/value	/jointset/ankle_l/ankle_angle_l/value	/jointset/subtalar_l/subtalar_angle_l/value	/jointset/ground_pelvis/pelvis_tilt/speed	/jointset/ground_pelvis/pelvis_tx/speed	/jointset/ground_pelvis/pelvis_ty/speed	/jointset/hip_l/hip_flexion_l/speed	/jointset/hip_l/hip_adduction_l/speed	/jointset/hip_l/hip_rotation_l/speed	/jointset/back/lumbar_extension/speed	/jointset/patellofemoral_l/patellar_flexion_l/speed	/jointset/knee_l/knee_flexion_l/speed	/jointset/knee_l/knee_adduction_l/speed	/jointset/knee_l/knee_rotation_l/speed	/jointset/ankle_l/ankle_angle_l/speed	/jointset/subtalar_l/subtalar_angle_l/speed	/forceset/tau_hip_flexion_l	/forceset/tau_hip_adduction_l	/forceset/tau_hip_rotation_l	/forceset/tau_knee_flexion_l	/forceset/tau_ankle_angle_l	/forceset/tau_subtalar_angle_l	/forceset/tau_lumbar_extension	lambda_cid13_p0	lambda_cid13_p1	lambda_cid13_p2	lambda_cid13_p3	lambda_cid13_p4	lambda_cid13_p5	lambda_cid14_p0	/jointset/ground_pelvis/pelvis_tilt/accel	/jointset/ground_pelvis/pelvis_tx/accel	/jointset/ground_pelvis/pelvis_ty/accel	/jointset/hip_l/hip_flexion_l/accel	/jointset/hip_l/hip_adduction_l/accel	/jointset/hip_l/hip_rotation_l/accel	/jointset/back/lumbar_extension/accel	/jointset/patellofemoral_l/patellar_flexion_l/accel	/jointset/knee_l/knee_flexion_l/accel	/jointset/knee_l/knee_adduction_l/accel	/jointset/knee_l/knee_rotation_l/accel	/jointset/ankle_l/ankle_angle_l/accel	/jointset/subtalar_l/subtalar_angle_l/accel	gamma_cid13_p0	gamma_cid13_p1	gamma_cid13_p2	gamma_cid13_p3	gamma_cid13_p4	gamma_cid13_p5	gamma_cid14_p0
1.5	-0.2941684607952071	0.0636534978334027	0.8073074519413315	0.9050528859261862	-0.3468257199817208	-0.07640082314297594	-0.3181633667801906	0.766931137461924	0.7669311374619073	-0.01333853327944873	-0.1619098433565745	0.2745580527336723	0.1701235767288505	0.3915891101006855	0.2377658755456224	0.4333498539072886	-2.049886088979823	0.06938962854565113	-0.5511482010355202	0.6283034782747924	-2.073144137907514	-2.073144137907265	-0.1869595207076921	0.08237719796006772	-0.5542855870006348	-0.1375271334702839	-0.1140026980197159	0.07750138254217068	-0.003204075028096162	-0.1307060114687617	-0.02904188889887038	-0.01280190484193844	0.1147449778634076	-35.16257458506551	12.30947977772802	-2.920712923600808	-0.4012574146401366	-432.7401629512933	-28.08486359106837	-11.9295200522522	0.4832714993643744	0.4500450866730546	-0.6643374832963777	-1.073389381417078	0.3734461374834109	-0.2696241278239494	1.383792644411112	-1.096264365661143	-1.096264365661145	0.00763233945474572	0.2802977942886303	-0.4741555976795147	0.4222819621264471	4.024295459694179e-07	2.669782949724426e-07	-4.372041307244651e-06	-1.104917092399974e-07	8.244712776487732e-07	1.522904583495102e-06	5.388681021846439e-07
1.51	-0.2902284425322741	0.06605327483304987	0.8116068526427113	0.8845020898122595	-0.3461152352119727	-0.08192099028729667	-0.3118130615186675	0.7461471792690612	0.7461471792690696	-0.01521425500802254	-0.1610716072926978	0.2689915526309593	0.1687665179429711	0.396347926853602	0.2421443072894073	0.4264328052615624	-2.059961867549213	0.07268046634474334	-0.5527354326520826	0.641632286145324	-2.083332418187656	-2.083332418187415	-0.1882481150885306	0.08531018386689167	-0.5589301822029574	-0.133895248024144	-0.1100363722780741	0.07605880560292312	-0.002575791372570247	-0.1276099170041033	-0.02895095877040623	-0.01360231842761493	0.111308064626232	-35.01222076807547	12.40644711949013	-2.679939032077143	-0.1665912451560085	-429.8453522365696	-28.08747000885293	-12.75441447769795	0.4622390191096977	0.4249531046467	-0.7198441919673854	-0.9279222144707381	0.3034339754866995	-0.08022998372715114	1.288631675646221	-0.932954103120594	-0.9329541031219862	-0.206648971370447	0.305085310331657	-0.4469241385208696	0.3324236821139318	3.768306858315355e-07	5.752346415215671e-07	-4.21410866820639e-06	-5.918031326212806e-08	8.298669495107158e-07	1.71842461720026e-06	5.350458646496818e-07
1.52	-0.28624282565064	0.06849547832741794	0.8158341917302825	0.8638598858886856	-0.3453725357893609	-0.0874524212088139	-0.3053332268149842	0.7252707694246228	0.7252707694246313	-0.01710477140933572	-0.1602029841054489	0.2633811440448205	0.1674455343808043	0.4007088338406929	0.2462511744897999	0.4189375311455813	-2.068167650909436	0.07583255911841837	-0.5534009564748339	0.6542093667067383	-2.091634468224994	-2.091634468224763	-0.1899184552500599	0.08845462263181016	-0.5630672836857682	-0.1303120887277568	-0.1060700465364303	0.07461622866367471	-0.001947507717189645	-0.1245138225394453	-0.02886002864194042	-0.01440273201328908	0.1078711513890588	-34.85881290474612	12.50198344816994	-2.437910077932513	0.03144473972243878	-426.8978760297605	-28.1634787895007	-13.57717532286758	0.4036895461992442	0.3957321779945795	-0.7799825773473498	-0.6993903395836573	0.3456971323999712	-0.08528256906170453	1.233447182587693	-0.7190183171005473	-0.7190183171005486	-0.068716816683424	0.3225883659075441	-0.3726568537771062	0.4125367321758783	3.47395849339315e-07	8.920461908486104e-07	-4.029879390443313e-06	-5.816787508005267e-09	8.322142434266624e-07	1.904412148334775e-06	5.285078465963677e-07
1.53	-0.2822156525639361	0.07097734108432042	0.8199838026951188	0.8431449602429106	-0.3445988005298261	-0.09298814805363724	-0.2987314571863638	0.7043206544942958	0.7043206544943024	-0.01901201127468595	-0.1593030623132608	0.2577319486444767	0.1661604992279526	0.4046473848527565	0.2500700550336986	0.4108980199629665	-2.074492046929474	0.07890943987461493	-0.5537113502382512	0.6660163921786004	-2.098073136020164	-2.098073136019999	-0.1914775855930332	0.09150714644329699	-0.5666811035293406	-0.1266736573523018	-0.1021131227945589	0.07307145005221277	-0.001268985300058029	-0.1216953700169989	-0.02869288460148975	-0.01536011967282569	0.1044473942007559	-34.71905138731201	12.68541924410015	-2.229699391860076	0.2825884182191896	-424.305414441144	-28.16776713675947	-14.39827762097398	0.3772151418824103	0.3672836065950175	-0.8287654984594156	-0.5500985045645118	0.2883586628449832	0.001608689099012311	1.135105203628591	-0.5590865455756288	-0.5590865455855354	-0.1916777085557959	0.2925474152109726	-0.3420750473892436	0.3429106496521461	3.138852879706104e-07	1.217947643127192e-06	-3.817709934035117e-06	4.972712613338683e-08	8.313226357749883e-07	2.080271395487983e-06	5.190843117423047e-07
1.54	-0.2781514385144754	0.07349585616946336	0.8240504525261808	0.8223765637826654	-0.3437943614396055	-0.09852587354228046	-0.2920154623081959	0.6833155937790478	0.6833155937790516	-0.02093327575654695	-0.1583734226776721	0.2520493489461494	0.1649125312507398	0.4081170263917191	0.2535816401378868	0.4023453043907331	-2.07886181380354	0.08197332525543256	-0.5538006852384382	0.6770544166161888	-2.10262362520935	-2.102623625209251	-0.192723378554067	0.09439819131245281	-0.5697481432825896	-0.1228986535999734	-0.09815619905269751	0.07152667144073915	-0.0005904628829025498	-0.1188769174945546	-0.02852574056104181	-0.0163175073323806	0.1010236370124464	-34.57602122738696	12.86746691320841	-2.020333668326858	0.498363597067827	-421.6597826806006	-28.24217831830753	-15.21617988349497	0.3099076515790556	0.3342730900525077	-0.8826234552710832	-0.3084645103893145	0.3430980573241762	-0.04107081641560457	1.079646975732961	-0.3413825959036917	-0.3413825959036917	-0.006049340295537807	0.2902925774413427	-0.2633008357124448	0.4398512075505319	2.727016319973359e-07	1.517619831621712e-06	-3.561433365246156e-06	1.058307223557282e-07	8.025414651268434e-07	2.19760458141893e-06	5.048744827406268e-07
1.55	-0.2740549168148088	0.07604795314720728	0.8280290915190459	0.8015743127695434	-0.3429592571727023	-0.1040641457812466	-0.2851929609230651	0.662274659314861	0.6622746593148625	-0.02286473036599273	-0.1574160891515478	0.246339019588916	0.163703228427095	0.411110898210499	0.2567861203191981	0.3933072675201754	-2.081267982362298	0.08503784781092161	-0.553783766779999	0.6873038567563833	-2.105238950824079	-2.105238950823858	-0.1935408585069369	0.09706665753761659	-0.5722162394065211	-0.1189444659614224	-0.09413467256478317	0.06963914006940836	0.0001344993425455902	-0.1164754820025106	-0.02800335816949726	-0.01732103610960504	0.09757579487482164	-34.34280009775588	13.07350533758385	-1.837346392843652	0.6489454729888221	-419.3383029323971	-28.38560661243224	-16.02164594629067	0.2826920393954736	0.3058290396328742	-0.9255362452381849	-0.1585942882653849	0.2869540703120721	0.03410051157489165	0.976291985080721	-0.1730548620644558	-0.1730548620461229	-0.115453986351544	0.2543139196286792	-0.2232665046108734	0.3758826614242741	2.22677236588362e-07	1.787071346625901e-06	-3.254337732192403e-06	1.625791702474241e-07	7.416266675479839e-07	2.247505566376407e-06	4.851500104819145e-07
1.56	-0.2699307433784805	0.07863055363825676	0.8319151216547473	0.7807576198189041	-0.3420937427371152	-0.1096000433687081	-0.2782722252461484	0.6412172821309662	0.6412172821309667	-0.02480353110767894	-0.1564322329082571	0.2406070687696679	0.162534003503719	0.4136473737239997	0.2596823427989975	0.3838235329580279	-2.081750201306915	0.08805535899244492	-0.5533257549375117	0.6967012749733001	-2.105912169151083	-2.10591216915074	-0.1941926050025599	0.09970273474577181	-0.5740724356855468	-0.1148830735461955	-0.09011314607686947	0.06775160869806995	0.0008594615679894262	-0.1140740465104636	-0.02748097577795186	-0.01832456488683606	0.09412795273719633	-34.11015989096904	13.28055742243938	-1.655560475967789	0.7767840684255992	-417.0215432056025	-28.59848954824671	-16.80945769789726	0.2184283905232545	0.2726215497501761	-0.9717629935890515	0.07632541243869351	0.3336957825310171	0.04714786039404964	0.9092425910774156	0.04703886164146945	0.04703886164146986	0.02709735115385088	0.2838147740396376	-0.1409208667312705	0.4612921628857045	1.182618144097142e-07	2.322216210998207e-06	-2.576736150391097e-06	2.623369295610858e-07	6.110002440057335e-07	2.222968253046387e-06	4.396835383321243e-07
1.57	-0.2657837269559563	0.08124050684859725	0.8357041839279186	0.7599460456578678	-0.3411979934110043	-0.1151315946732377	-0.2712616426837465	0.6201629300440411	0.6201629300439269	-0.02674617309359809	-0.1554238565471765	0.2348596833620336	0.1614063796322373	0.4156768559232114	0.2622508175310488	0.373927607194336	-2.080258412227495	0.09104553377115235	-0.5527659835391089	0.7052632298333396	-2.104657065567296	-2.104657065566982	-0.1944650937296808	0.1020536104754699	-0.5753260511327297	-0.1106866323593361	-0.08613977001853074	0.06577241203242722	0.001599124556901452	-0.1118228918728533	-0.02696880295562261	-0.01947377427269161	0.09072707523004893	-33.91714084239451	13.57065182199306	-1.50167736209267	0.9764322185067463	-415.0600646450842	-28.73041684416218	-17.57453503645916	0.183335216239735	0.2404390234517572	-1.007650969262926	0.2315226657955853	0.2740508354643154	0.09351903020193823	0.8068707823806037	0.2098600412414405	0.2098600412370344	-0.07328720932200376	0.2227733037556235	-0.1056868907794156	0.3915975602561578	-5.414239123102519e-08	3.189477762080657e-06	-1.436002132655353e-06	4.158563281522042e-07	3.932342880092452e-07	2.105383066856998e-06	3.62039566318487e-07
1.58	-0.2616187902951114	0.08387444052396216	0.8393924582231522	0.7391585727896436	-0.340273867835114	-0.1206509228136746	-0.2641700008029622	0.5991301517797484	0.5991301517797492	-0.0286953130113091	-0.1543895615627486	0.2291021407985209	0.1603192756653581	0.417231421387224	0.2644784358038792	0.3636659373705043	-2.076929942743984	0.09373060894683305	-0.5508811221151824	0.7129131386499163	-2.101597404603744	-2.101597404603459	-0.1954921914438938	0.1048864594580077	-0.5761038668626169	-0.1067790926256761	-0.08216639396029883	0.06379321536665403	0.002338787547374043	-0.1095717372352867	-0.02645663013334792	-0.02062298365876971	0.08732619772283942	-33.72765163697324	13.86320787662176	-1.350290530492369	1.171905751544329	-413.149957501369	-28.90076890541394	-18.31160438017599	0.1234450434834869	0.2044502579060089	-1.044911805617043	0.4436614932567903	0.2726758619255875	0.3121658654988181	0.7268333823849171	0.4079503375945014	0.4079503375945005	-0.1238244462645491	0.380209424607625	-0.04576092327211725	0.4035118722458438	-2.380539582211226e-07	3.987238456008493e-06	-1.623417375924243e-07	5.580704786105767e-07	1.457856543957324e-07	1.844720285330627e-06	2.652095327450448e-07
